<svg width="256" height="256" viewBox="0 0 256 256" fill="none" xmlns="http://www.w3.org/2000/svg">
<rect width="256" height="256" fill="white"/>
<path fill-rule="evenodd" clip-rule="evenodd" d="M207.038 26.1157C207.039 20.4178 204.341 15.0561 199.766 11.6601L195.333 8.36949C188.705 3.44983 179.58 3.66877 173.196 8.90065L59.3756 102.173C53.2193 107.218 51.1073 115.707 54.1819 123.049L102.324 238.002C106.385 247.698 117.857 251.866 127.195 247.037L197.287 210.792C203.264 207.701 207.018 201.535 207.019 194.806L207.038 26.1157Z" fill="black"/>
<path fill-rule="evenodd" clip-rule="evenodd" d="M207.024 149.844L207.018 202.109C207.018 204.352 205.766 206.407 203.774 207.438L115.64 253.012C112.527 254.622 108.703 253.233 107.349 250.001L50.7273 114.8C49.7024 112.353 50.4064 109.523 52.4585 107.842L57.9189 103.367V110.873H71.0194V149.844H81.9975V110.873H95.0981V101.148H60.6266L180.437 2.96688C182.565 1.22293 185.606 1.14994 187.816 2.78983L204.615 15.2589C206.14 16.3909 207.039 18.1782 207.039 20.0775L207.029 101.148H178.678V149.844H207.024ZM207.025 140.12H189.656V129.518H207.026L207.025 140.12ZM207.027 119.793H189.656V110.873H207.028L207.027 119.793ZM172.395 181.833H176.098L183.344 155.05H181.049L174.327 180.023L168.329 155.05H164.546L158.548 180.023L151.826 155.05H149.531L156.777 181.833H160.48L166.437 156.739L172.395 181.833ZM203.309 181.833H205.644L196.305 155.05H192.803L183.465 181.833H185.799L188.295 174.795H200.773L203.309 181.833ZM121.811 101.148H107.174L92.3169 149.844H103.734L106.369 140.339H122.69L125.324 149.844H136.742L121.811 101.148ZM152.477 149.844V130.98H170.92V121.255H152.477V110.873H172.457V101.148H141.499V149.844H152.477ZM114.493 110.799L120.055 131.199H108.857L114.493 110.799ZM194.534 156.417L200.049 172.745H189.019L194.534 156.417Z" fill="#D9272E"/>
</svg>
