<?xml version="1.0" encoding="utf-8"?>
<!-- Generator: Adobe Illustrator 21.0.0, SVG Export Plug-In . SVG Version: 6.00 Build 0)  -->
<svg version="1.1" id="_x31_" xmlns="http://www.w3.org/2000/svg" xmlns:xlink="http://www.w3.org/1999/xlink" x="0px" y="0px" viewBox="0 0 24 24" enable-background="new 0 0 24 24" xml:space="preserve" width="128" height="128">
<g>
	<path fill="#110638" d="M17.5,9C17.224,9,17,8.776,17,8.5v-3C17,4.673,16.327,4,15.5,4h-2C13.224,4,13,3.776,13,3.5
		S13.224,3,13.5,3h2C16.879,3,18,4.122,18,5.5v3C18,8.776,17.776,9,17.5,9z" style="stroke: currentColor; stroke-width: 1px; stroke-linecap: round;"/>
</g>
<g>
	<path fill="#110638" d="M10.8,24H2.5C1.121,24,0,22.878,0,21.5v-16C0,4.122,1.121,3,2.5,3h2C4.776,3,5,3.224,5,3.5S4.776,4,4.5,4
		h-2C1.673,4,1,4.673,1,5.5v16C1,22.327,1.673,23,2.5,23h8.3c0.276,0,0.5,0.224,0.5,0.5S11.076,24,10.8,24z" style="stroke: currentColor; stroke-width: 1px; stroke-linecap: round;"/>
</g>
<g>
	<path fill="#FF7A55" d="M12.5,6h-7C4.673,6,4,5.327,4,4.5v-2C4,2.224,4.224,2,4.5,2h2.05C6.782,0.86,7.793,0,9,0s2.218,0.86,2.45,2
		h2.05C13.776,2,14,2.224,14,2.5v2C14,5.327,13.327,6,12.5,6z" style="stroke: currentColor; stroke-width: 1px; stroke-linecap: round;"/>
</g>
<g>
	<path fill="#110638" d="M17.5,24c-3.584,0-6.5-2.916-6.5-6.5s2.916-6.5,6.5-6.5s6.5,2.916,6.5,6.5S21.084,24,17.5,24z M17.5,12
		c-3.032,0-5.5,2.467-5.5,5.5s2.468,5.5,5.5,5.5s5.5-2.467,5.5-5.5S20.532,12,17.5,12z" style="stroke: currentColor; stroke-width: 1px; stroke-linecap: round;"/>
</g>
<g>
	<path fill="#110638" d="M16.5,20c-0.133,0-0.26-0.053-0.354-0.146l-2-2c-0.195-0.195-0.195-0.512,0-0.707s0.512-0.195,0.707,0
		l1.622,1.622l3.148-3.598c0.182-0.209,0.498-0.229,0.705-0.047c0.208,0.182,0.229,0.498,0.047,0.706l-3.5,4
		c-0.091,0.104-0.221,0.166-0.359,0.17C16.511,20,16.506,20,16.5,20z" style="stroke: currentColor; stroke-width: 1px; stroke-linecap: round;"/>
</g>
<g>
	<path fill="#110638" d="M7.5,13h-4C3.224,13,3,12.776,3,12.5v-4C3,8.224,3.224,8,3.5,8h4C7.776,8,8,8.224,8,8.5v4
		C8,12.776,7.776,13,7.5,13z M4,12h3V9H4V12z" style="stroke: currentColor; stroke-width: 1px; stroke-linecap: round;"/>
</g>
<g>
	<path fill="#110638" d="M7.5,21h-4C3.224,21,3,20.776,3,20.5v-4C3,16.224,3.224,16,3.5,16h4C7.776,16,8,16.224,8,16.5v4
		C8,20.776,7.776,21,7.5,21z M4,20h3v-3H4V20z" style="stroke: currentColor; stroke-width: 1px; stroke-linecap: round;"/>
</g>
<g>
	<path fill="#110638" d="M14.5,9.5h-4C10.224,9.5,10,9.276,10,9s0.224-0.5,0.5-0.5h4C14.776,8.5,15,8.724,15,9S14.776,9.5,14.5,9.5z
		" style="stroke: currentColor; stroke-width: 1px; stroke-linecap: round;"/>
</g>
</svg>
