<?xml version="1.0" encoding="utf-8"?>
<!-- Generator: Adobe Illustrator 21.0.0, SVG Export Plug-In . SVG Version: 6.00 Build 0)  -->
<svg version="1.1" id="_x31_" xmlns="http://www.w3.org/2000/svg" xmlns:xlink="http://www.w3.org/1999/xlink" x="0px" y="0px" viewBox="0 0 24 24" enable-background="new 0 0 24 24" xml:space="preserve" width="128" height="128">
<path fill="#110638" d="M16.5,10c-0.073,0-0.147-0.017-0.217-0.05C16.11,9.867,16,9.692,16,9.5V8H7.5C6.673,8,6,7.327,6,6.5v-2
	C6,3.673,6.673,3,7.5,3H16V1.5c0-0.192,0.11-0.367,0.283-0.45c0.174-0.084,0.379-0.061,0.529,0.06l5,4C21.931,5.204,22,5.348,22,5.5
	s-0.069,0.296-0.188,0.391l-5,4C16.722,9.963,16.611,10,16.5,10z M7.5,4C7.225,4,7,4.225,7,4.5v2C7,6.775,7.225,7,7.5,7h9
	C16.776,7,17,7.224,17,7.5v0.96l3.699-2.96L17,2.54V3.5C17,3.776,16.776,4,16.5,4H7.5z" style="stroke: currentColor; stroke-width: 1px; stroke-linecap: round;"/>
<path fill="#110638" d="M19.5,24h-15C4.224,24,4,23.776,4,23.5S4.224,23,4.5,23h15c0.276,0,0.5,0.224,0.5,0.5S19.776,24,19.5,24z" style="stroke: currentColor; stroke-width: 1px; stroke-linecap: round;"/>
<path fill="#110638" d="M13.5,4C13.224,4,13,3.776,13,3.5v-2C13,1.225,12.775,1,12.5,1h-1C11.225,1,11,1.225,11,1.5v2
	C11,3.776,10.776,4,10.5,4S10,3.776,10,3.5v-2C10,0.673,10.673,0,11.5,0h1C13.327,0,14,0.673,14,1.5v2C14,3.776,13.776,4,13.5,4z" style="stroke: currentColor; stroke-width: 1px; stroke-linecap: round;"/>
<path fill="#110638" d="M13.5,13c-0.276,0-0.5-0.224-0.5-0.5v-5C13,7.224,13.224,7,13.5,7S14,7.224,14,7.5v5
	C14,12.776,13.776,13,13.5,13z" style="stroke: currentColor; stroke-width: 1px; stroke-linecap: round;"/>
<path fill="#110638" d="M13.5,24c-0.276,0-0.5-0.224-0.5-0.5v-7c0-0.276,0.224-0.5,0.5-0.5s0.5,0.224,0.5,0.5v7
	C14,23.776,13.776,24,13.5,24z" style="stroke: currentColor; stroke-width: 1px; stroke-linecap: round;"/>
<path fill="#110638" d="M10.5,13c-0.276,0-0.5-0.224-0.5-0.5v-5C10,7.224,10.224,7,10.5,7S11,7.224,11,7.5v5
	C11,12.776,10.776,13,10.5,13z" style="stroke: currentColor; stroke-width: 1px; stroke-linecap: round;"/>
<path fill="#110638" d="M10.5,24c-0.276,0-0.5-0.224-0.5-0.5v-7c0-0.276,0.224-0.5,0.5-0.5s0.5,0.224,0.5,0.5v7
	C11,23.776,10.776,24,10.5,24z" style="stroke: currentColor; stroke-width: 1px; stroke-linecap: round;"/>
<path fill="#FF7A55" d="M7.5,19c-0.111,0-0.222-0.037-0.313-0.109l-5-4C2.069,14.795,2,14.652,2,14.5s0.069-0.295,0.187-0.391l5-4
	c0.15-0.121,0.354-0.145,0.529-0.06C7.89,10.133,8,10.308,8,10.5V12h8.5c0.827,0,1.5,0.673,1.5,1.5v2c0,0.827-0.673,1.5-1.5,1.5H8
	v1.5c0,0.192-0.11,0.367-0.283,0.451C7.647,18.984,7.573,19,7.5,19z" style="stroke: currentColor; stroke-width: 1px; stroke-linecap: round;"/>
</svg>
