<?xml version="1.0" encoding="UTF-8"?><svg version="1.1" viewBox="0 0 24 24" xmlns="http://www.w3.org/2000/svg" xmlns:xlink="http://www.w3.org/1999/xlink" width="128" height="128"><!--Generated by IJSVG (https://github.com/iconjar/IJSVG)--><g fill="#110638" fill-rule="evenodd"><path d="M1.5,5c0,-0.82843 0.67157,-1.5 1.5,-1.5h4.5c2.48528,0 4.5,2.01472 4.5,4.5v11.625c0,0.8284 -0.6716,1.5 -1.5,1.5h-7.5c-0.82843,0 -1.5,-0.6716 -1.5,-1.5v-14.625Zm1.5,-0.5c-0.27614,0 -0.5,0.22386 -0.5,0.5v14.625c0,0.2761 0.22386,0.5 0.5,0.5h7.5c0.2761,0 0.5,-0.2239 0.5,-0.5v-11.625c0,-1.933 -1.567,-3.5 -3.5,-3.5h-4.5Z" style="stroke: currentColor; stroke-width: 1px; stroke-linecap: round;"/><path d="M21.5,5c0,-0.82843 -0.6716,-1.5 -1.5,-1.5h-4.5c-2.4853,0 -4.5,2.01472 -4.5,4.5v12.5c0,0.2761 0.2239,0.5 0.5,0.5c0.2761,0 0.5,-0.2239 0.5,-0.5v-12.5c0,-1.933 1.567,-3.5 3.5,-3.5h4.5c0.2761,0 0.5,0.22386 0.5,0.5v5.5c0,0.2761 0.2239,0.5 0.5,0.5c0.2761,0 0.5,-0.2239 0.5,-0.5v-5.5Z" style="stroke: currentColor; stroke-width: 1px; stroke-linecap: round;"/><path d="M14.5704,18.4929c0.0194,-0.0968 0.067,-0.1857 0.1368,-0.2555l4.9497,-4.9497c0.5858,-0.5858 1.5356,-0.5858 2.1213,0c0.5858,0.5857 0.5858,1.5355 0,2.1213l-4.9497,4.9497c-0.0698,0.0698 -0.1587,0.1174 -0.2555,0.1368l-1.7678,0.3535c-0.1639,0.0328 -0.3334,-0.0185 -0.4516,-0.1367c-0.1182,-0.1182 -0.1695,-0.2877 -0.1367,-0.4516l0.3535,-1.7678Zm0.9509,0.3446l-0.1767,0.8838l0.8838,-0.1767l4.8427,-4.8427c0.1953,-0.1953 0.1953,-0.5119 0,-0.7071c-0.1952,-0.1953 -0.5118,-0.1953 -0.7071,0l-4.8427,4.8427Z" style="stroke: currentColor; stroke-width: 1px; stroke-linecap: round;"/><path fill="#F3C461" d="M2,16.5625c-0.27614,0 -0.5,0.2239 -0.5,0.5v3.5625c0,0.2761 0.22386,0.5 0.5,0.5h9.5c0.2761,0 0.5,-0.2239 0.5,-0.5c0,-2.2437 -1.8188,-4.0625 -4.0625,-4.0625h-5.9375Z" style="stroke: currentColor; stroke-width: 1px; stroke-linecap: round;"/></g></svg>