<?xml version="1.0" encoding="utf-8"?>
<!-- Generator: Adobe Illustrator 21.0.0, SVG Export Plug-In . SVG Version: 6.00 Build 0)  -->
<svg version="1.1" id="_x31_" xmlns="http://www.w3.org/2000/svg" xmlns:xlink="http://www.w3.org/1999/xlink" x="0px" y="0px" viewBox="0 0 24 24" enable-background="new 0 0 24 24" xml:space="preserve" width="128" height="128">
<path fill="#FF7A55" d="M11.6,9.8L10.25,8H7.5C6.673,8,6,7.327,6,6.5v-5C6,0.673,6.673,0,7.5,0h9C17.327,0,18,0.673,18,1.5v5
	C18,7.327,17.327,8,16.5,8h-2.523l-1.601,1.829C12.167,10.068,11.791,10.054,11.6,9.8z" style="stroke: currentColor; stroke-width: 1px; stroke-linecap: round;"/>
<path fill="#110638" d="M20,11c-0.006,0-0.013,0-0.02,0c-0.151-0.006-0.291-0.08-0.381-0.201l-0.79-1.06
	c-0.165-0.222-0.119-0.535,0.102-0.7c0.221-0.166,0.534-0.121,0.7,0.102l0.42,0.564l1.342-1.534C21.469,8.062,21.606,8,21.75,8h0.75
	C22.776,8,23,7.776,23,7.5v-5C23,2.224,22.776,2,22.5,2h-2C20.224,2,20,1.776,20,1.5S20.224,1,20.5,1h2C23.327,1,24,1.673,24,2.5v5
	C24,8.327,23.327,9,22.5,9h-0.523l-1.601,1.829C20.281,10.938,20.144,11,20,11z" style="stroke: currentColor; stroke-width: 1px; stroke-linecap: round;"/>
<path fill="#110638" d="M4,11c-0.144,0-0.281-0.062-0.376-0.171L2.023,9H1.5C0.673,9,0,8.327,0,7.5v-5C0,1.673,0.673,1,1.5,1h2
	C3.776,1,4,1.224,4,1.5S3.776,2,3.5,2h-2C1.224,2,1,2.224,1,2.5v5C1,7.776,1.224,8,1.5,8h0.75c0.144,0,0.281,0.062,0.376,0.171
	l1.342,1.534l0.42-0.564c0.166-0.222,0.479-0.267,0.7-0.102s0.267,0.478,0.102,0.7l-0.79,1.06C4.311,10.92,4.17,10.994,4.02,11
	C4.013,11,4.006,11,4,11z" style="stroke: currentColor; stroke-width: 1px; stroke-linecap: round;"/>
<path fill="#110638" d="M20,17c-1.103,0-2-0.897-2-2s0.897-2,2-2s2,0.897,2,2S21.103,17,20,17z M20,14c-0.551,0-1,0.449-1,1
	s0.449,1,1,1s1-0.449,1-1S20.551,14,20,14z" style="stroke: currentColor; stroke-width: 1px; stroke-linecap: round;"/>
<path fill="#110638" d="M23.5,22c-0.276,0-0.5-0.224-0.5-0.5v-1c0-0.827-0.673-1.5-1.5-1.5h-3c-0.276,0-0.5-0.224-0.5-0.5
	s0.224-0.5,0.5-0.5h3c1.378,0,2.5,1.122,2.5,2.5v1C24,21.776,23.776,22,23.5,22z" style="stroke: currentColor; stroke-width: 1px; stroke-linecap: round;"/>
<path fill="#110638" d="M4,17c-1.103,0-2-0.897-2-2s0.897-2,2-2s2,0.897,2,2S5.103,17,4,17z M4,14c-0.551,0-1,0.449-1,1s0.449,1,1,1
	s1-0.449,1-1S4.551,14,4,14z" style="stroke: currentColor; stroke-width: 1px; stroke-linecap: round;"/>
<path fill="#110638" d="M0.5,22C0.224,22,0,21.776,0,21.5v-1C0,19.122,1.122,18,2.5,18h3C5.776,18,6,18.224,6,18.5S5.776,19,5.5,19
	h-3C1.673,19,1,19.673,1,20.5v1C1,21.776,0.776,22,0.5,22z" style="stroke: currentColor; stroke-width: 1px; stroke-linecap: round;"/>
<path fill="#110638" d="M12,17.5c-1.654,0-3-1.346-3-3s1.346-3,3-3s3,1.346,3,3S13.654,17.5,12,17.5z M12,12.5c-1.103,0-2,0.897-2,2
	s0.897,2,2,2s2-0.897,2-2S13.103,12.5,12,12.5z" style="stroke: currentColor; stroke-width: 1px; stroke-linecap: round;"/>
<path fill="#110638" d="M17,24c-0.276,0-0.5-0.224-0.5-0.5v-2c0-0.827-0.673-1.5-1.5-1.5H9c-0.827,0-1.5,0.673-1.5,1.5v2
	C7.5,23.776,7.276,24,7,24s-0.5-0.224-0.5-0.5v-2C6.5,20.122,7.622,19,9,19h6c1.378,0,2.5,1.122,2.5,2.5v2
	C17.5,23.776,17.276,24,17,24z" style="stroke: currentColor; stroke-width: 1px; stroke-linecap: round;"/>
</svg>
