<?xml version="1.0" encoding="utf-8"?>
<!-- Generator: Adobe Illustrator 21.0.0, SVG Export Plug-In . SVG Version: 6.00 Build 0)  -->
<svg version="1.1" id="_x31_" xmlns="http://www.w3.org/2000/svg" xmlns:xlink="http://www.w3.org/1999/xlink" x="0px" y="0px" viewBox="0 0 24 24" enable-background="new 0 0 24 24" xml:space="preserve" width="128" height="128">
<path fill="#6766DB" d="M19.161,13.867L16.055,11H12.5C11.122,11,10,9.878,10,8.5v-6C10,1.122,11.122,0,12.5,0h9
	C22.878,0,24,1.122,24,2.5v6c0,1.378-1.122,2.5-2.5,2.5H20v2.5C20,13.939,19.477,14.16,19.161,13.867z" style="stroke: currentColor; stroke-width: 1px; stroke-linecap: round;"/>
<path fill="#110638" d="M4,19c-1.103,0-2-0.897-2-2s0.897-2,2-2s2,0.897,2,2S5.103,19,4,19z M4,16c-0.551,0-1,0.449-1,1s0.449,1,1,1
	s1-0.449,1-1S4.551,16,4,16z" style="stroke: currentColor; stroke-width: 1px; stroke-linecap: round;"/>
<path fill="#110638" d="M7.5,24C7.224,24,7,23.776,7,23.5v-1C7,21.673,6.327,21,5.5,21h-3C1.673,21,1,21.673,1,22.5v1
	C1,23.776,0.776,24,0.5,24S0,23.776,0,23.5v-1C0,21.122,1.122,20,2.5,20h3C6.878,20,8,21.122,8,22.5v1C8,23.776,7.776,24,7.5,24z" style="stroke: currentColor; stroke-width: 1px; stroke-linecap: round;"/>
<path fill="#110638" d="M20,19c-1.103,0-2-0.897-2-2s0.897-2,2-2s2,0.897,2,2S21.103,19,20,19z M20,16c-0.551,0-1,0.449-1,1
	s0.449,1,1,1s1-0.449,1-1S20.551,16,20,16z" style="stroke: currentColor; stroke-width: 1px; stroke-linecap: round;"/>
<path fill="#110638" d="M23.5,24c-0.276,0-0.5-0.224-0.5-0.5v-1c0-0.827-0.673-1.5-1.5-1.5h-3c-0.827,0-1.5,0.673-1.5,1.5v1
	c0,0.276-0.224,0.5-0.5,0.5S16,23.776,16,23.5v-1c0-1.378,1.122-2.5,2.5-2.5h3c1.378,0,2.5,1.122,2.5,2.5v1
	C24,23.776,23.776,24,23.5,24z" style="stroke: currentColor; stroke-width: 1px; stroke-linecap: round;"/>
<path fill="#110638" d="M4,13.5V11H2.5C1.122,11,0,9.878,0,8.5v-6C0,1.122,1.122,0,2.5,0h5.41c0.276,0,0.5,0.224,0.5,0.5
	S8.187,1,7.91,1H2.5C1.673,1,1,1.673,1,2.5v6C1,9.327,1.673,10,2.5,10h2C4.776,10,5,10.224,5,10.5v1.858l2.411-2.225
	C7.503,10.047,7.625,10,7.75,10h0.16c0.276,0,0.5,0.224,0.5,0.5c0,0.264-0.204,0.48-0.463,0.499l-3.107,2.869
	C4.523,14.161,4,13.937,4,13.5z" style="stroke: currentColor; stroke-width: 1px; stroke-linecap: round;"/>
</svg>
