<?xml version="1.0" encoding="UTF-8"?><svg version="1.1" viewBox="0 0 24 24" xmlns="http://www.w3.org/2000/svg" xmlns:xlink="http://www.w3.org/1999/xlink" width="128" height="128"><!--Generated by IJSVG (https://github.com/iconjar/IJSVG)--><g fill="#F3C461" fill-rule="evenodd"><path d="M3.85714,8.44444c0,-1.78916 1.32436,-3.28644 3.04677,-3.44844c0.03448,-0.0143 0.0709,-0.02485 0.10876,-0.03114c0.43787,-0.86397 1.31716,-1.46486 2.34447,-1.46486c0.88906,0 1.66566,0.44812 2.14286,1.12914c0.4772,-0.68102 1.2538,-1.12914 2.1429,-1.12914c1.0365,0 1.9225,0.61187 2.3562,1.48832c1.7694,0.11382 3.1438,1.63352 3.1438,3.45612v0.43094c1.6647,0.53591 2.8571,2.13872 2.8571,4.01352c0,1.8748 -1.1924,3.4776 -2.8571,4.0135v0.4309c0,1.8226 -1.3744,3.3424 -3.1438,3.4562c-0.4338,0.8765 -1.3197,1.4883 -2.3562,1.4883c-0.8891,0 -1.6657,-0.4481 -2.1429,-1.1292c-0.4772,0.6811 -1.2538,1.1292 -2.14286,1.1292c-1.03659,0 -1.92246,-0.6118 -2.35622,-1.4883c-1.76944,-0.1138 -3.14378,-1.6336 -3.14378,-3.4562v-0.4309c-1.66471,-0.5359 -2.85714,-2.1387 -2.85714,-4.0135c0,-1.8748 1.19243,-3.47761 2.85714,-4.01352v-0.43094Zm5.40482,-1.31971c0,-0.85414 -0.49424,-1.59284 -1.21233,-1.94571c0.30291,-0.41651 0.78023,-0.67902 1.30751,-0.67902c0.89036,0 1.64286,0.75377 1.64286,1.72222v13.3334c0,0.9684 -0.7525,1.7222 -1.64286,1.7222c-0.53834,0 -1.02459,-0.2737 -1.32633,-0.7054c0.72826,-0.3492 1.23115,-1.0933 1.23115,-1.9549c0,-0.2761 -0.22385,-0.5 -0.5,-0.5c-0.27614,0 -0.5,0.2239 -0.5,0.5c0,0.6443 -0.52233,1.1667 -1.16666,1.1667c-0.0228,0 -0.04523,0.0015 -0.06721,0.0045c-1.20059,-0.0989 -2.17095,-1.1449 -2.17095,-2.4554v-0.8148c0,-0.2364 -0.16562,-0.4406 -0.397,-0.4893c-1.39149,-0.2929 -2.46014,-1.5774 -2.46014,-3.1403c0,-1.5629 1.06865,-2.8474 2.46014,-3.14035c0.23138,-0.04871 0.397,-0.25283 0.397,-0.48928v-0.81483c0,-1.37755 1.07232,-2.46296 2.35715,-2.46296c0.03333,0 0.06648,0.00072 0.09945,0.00215c0.00925,0.0004 0.01847,0.00054 0.02765,0.00043c0.52615,0.11298 0.92057,0.58076 0.92057,1.14067c0,0.27614 0.22386,0.5 0.5,0.5c0.27615,0 0.5,-0.22386 0.5,-0.5Z" style="stroke: currentColor; stroke-width: 1px; stroke-linecap: round;"/><path fill="#110638" d="M13.7778,11.2222c0,-0.2762 0.2239,-0.5 0.5,-0.5c1.6018,0 2.7223,1.5774 2.7223,3.2777c0,0.3325 -0.041,0.6546 -0.1177,0.9587c-0.0676,0.2678 -0.3394,0.4301 -0.6072,0.3625c-0.2677,-0.0675 -0.43,-0.3393 -0.3625,-0.6071c0.0565,-0.2237 0.0874,-0.4636 0.0874,-0.7141c0,-1.3678 -0.8695,-2.2777 -1.7223,-2.2777c-0.2761,0 -0.5,-0.2239 -0.5,-0.5Z" style="stroke: currentColor; stroke-width: 1px; stroke-linecap: round;"/><path fill="#110638" d="M9.22217,11.2222c0,-0.2762 -0.22386,-0.5 -0.5,-0.5c-1.60179,0 -2.72222,1.5774 -2.72222,3.2777c0,0.3325 0.04096,0.6546 0.11769,0.9587c0.06755,0.2678 0.33936,0.4301 0.60712,0.3625c0.26775,-0.0675 0.43005,-0.3393 0.3625,-0.6071c-0.05645,-0.2237 -0.08731,-0.4636 -0.08731,-0.7141c0,-1.3678 0.86941,-2.2777 1.72222,-2.2777c0.27614,0 0.5,-0.2239 0.5,-0.5Z" style="stroke: currentColor; stroke-width: 1px; stroke-linecap: round;"/><path fill="#110638" d="M19.6465,4.4141c-0.1952,-0.19526 -0.1952,-0.51184 0,-0.70711l1.0607,-1.06066c0.1952,-0.19526 0.5118,-0.19526 0.7071,0c0.1953,0.19527 0.1953,0.51185 0,0.70711l-1.0607,1.06066c-0.1952,0.19526 -0.5118,0.19526 -0.7071,0Z" style="stroke: currentColor; stroke-width: 1px; stroke-linecap: round;"/><path fill="#110638" d="M20.7083,6.49243c0,-0.27614 0.2238,-0.5 0.5,-0.5h1.5c0.2761,0 0.5,0.22386 0.5,0.5c0,0.27614 -0.2239,0.5 -0.5,0.5h-1.5c-0.2762,0 -0.5,-0.22386 -0.5,-0.5Z" style="stroke: currentColor; stroke-width: 1px; stroke-linecap: round;"/><path fill="#110638" d="M17.7158,3.5c-0.2761,0 -0.5,-0.22386 -0.5,-0.5v-1.5c0,-0.27614 0.2239,-0.5 0.5,-0.5c0.2762,0 0.5,0.22386 0.5,0.5v1.5c0,0.27614 -0.2238,0.5 -0.5,0.5Z" style="stroke: currentColor; stroke-width: 1px; stroke-linecap: round;"/><path fill="#110638" d="M6.90391,4.996c-1.72241,0.162 -3.04677,1.65928 -3.04677,3.44844v0.43094c-1.66471,0.53591 -2.85714,2.13872 -2.85714,4.01352c0,1.8748 1.19243,3.4776 2.85714,4.0135v0.4309c0,1.8226 1.37434,3.3424 3.14378,3.4562c0.43376,0.8765 1.31963,1.4883 2.35622,1.4883c0.88906,0 1.66566,-0.4481 2.14286,-1.1292c0.4772,0.6811 1.2538,1.1292 2.1429,1.1292c1.0365,0 1.9224,-0.6118 2.3562,-1.4883c1.7694,-0.1138 3.1438,-1.6336 3.1438,-3.4562v-0.4309c1.6647,-0.5359 2.8571,-2.1387 2.8571,-4.0135c0,-1.8748 -1.1924,-3.47761 -2.8571,-4.01352v-0.43094c0,-1.82261 -1.3744,-3.34231 -3.1438,-3.45612c-0.4338,-0.87653 -1.3197,-1.48832 -2.3562,-1.48832c-0.8891,0 -1.6657,0.44812 -2.1429,1.12914c-0.4772,-0.68102 -1.2538,-1.12914 -2.14286,-1.12914c-1.02731,0 -1.9066,0.60089 -2.34447,1.46486c-0.03786,0.00629 -0.07428,0.01684 -0.10876,0.03114Zm1.14572,0.18302c0.71809,0.35287 1.21233,1.09157 1.21233,1.94571c0,0.27614 -0.22385,0.5 -0.5,0.5c-0.27614,0 -0.5,-0.22386 -0.5,-0.5c0,-0.55991 -0.39442,-1.02769 -0.92057,-1.14067c-0.00918,0.00011 -0.0184,-3e-05 -0.02765,-0.00043c-0.03297,-0.00143 -0.06612,-0.00215 -0.09945,-0.00215c-1.28483,0 -2.35715,1.08541 -2.35715,2.46296v0.81483c0,0.23645 -0.16562,0.44057 -0.397,0.48928c-1.39149,0.29295 -2.46014,1.57745 -2.46014,3.14035c0,1.5629 1.06865,2.8474 2.46014,3.1403c0.23138,0.0487 0.397,0.2529 0.397,0.4893v0.8148c0,1.3105 0.97036,2.3565 2.17095,2.4554c0.02198,-0.003 0.04441,-0.0045 0.06721,-0.0045c0.64433,0 1.16666,-0.5224 1.16666,-1.1667c0,-0.2761 0.22386,-0.5 0.5,-0.5c0.27615,0 0.5,0.2239 0.5,0.5c0,0.8616 -0.50289,1.6057 -1.23115,1.9549c0.30174,0.4317 0.78799,0.7054 1.32633,0.7054c0.89036,0 1.64286,-0.7538 1.64286,-1.7222v-13.3334c0,-0.96845 -0.7525,-1.72222 -1.64286,-1.72222c-0.52728,0 -1.0046,0.26251 -1.30751,0.67902Zm3.95037,1.0432v13.3334c0,0.9684 0.7525,1.7222 1.6429,1.7222c0.5166,0 0.9853,-0.2521 1.289,-0.6541c-0.7901,-0.3233 -1.3467,-1.0997 -1.3467,-2.0061c0,-0.2762 0.2238,-0.5 0.5,-0.5c0.2761,0 0.5,0.2238 0.5,0.5c0,0.6443 0.5223,1.1666 1.1666,1.1666c0.0359,0 0.071,0.0038 0.1047,0.011c1.2532,-0.039 2.2864,-1.1097 2.2864,-2.4619v-0.8148c0,-0.2364 0.1656,-0.4406 0.397,-0.4893c1.3915,-0.2929 2.4601,-1.5774 2.4601,-3.1403c0,-1.5629 -1.0686,-2.8474 -2.4601,-3.14035c-0.2314,-0.04871 -0.397,-0.25283 -0.397,-0.48928v-0.81483c0,-1.37755 -1.0724,-2.46296 -2.3572,-2.46296c-0.0333,0 -0.0665,0.00072 -0.0994,0.00215c-0.0425,0.00183 -0.0842,-0.00174 -0.1244,-0.01018c-0.554,0.09072 -0.9767,0.57163 -0.9767,1.15128c0,0.27614 -0.2239,0.5 -0.5,0.5c-0.2762,0 -0.5,-0.22386 -0.5,-0.5c0,-0.89849 0.5469,-1.66925 1.326,-1.99753c-0.304,-0.38635 -0.7633,-0.6272 -1.2683,-0.6272c-0.8904,0 -1.6429,0.75377 -1.6429,1.72222Z" style="stroke: currentColor; stroke-width: 1px; stroke-linecap: round;"/></g></svg>