<?xml version="1.0" encoding="utf-8"?>
<!-- Generator: Adobe Illustrator 21.0.0, SVG Export Plug-In . SVG Version: 6.00 Build 0)  -->
<svg version="1.1" id="_x31__px" xmlns="http://www.w3.org/2000/svg" xmlns:xlink="http://www.w3.org/1999/xlink" x="0px" y="0px" viewBox="0 0 24 24" enable-background="new 0 0 24 24" xml:space="preserve" width="128" height="128">
<path fill="#110638" d="M9.43,21H2.5C1.122,21,0,19.879,0,18.5v-14C0,3.121,1.122,2,2.5,2h12C15.878,2,17,3.121,17,4.5v7.32
	c0,0.276-0.224,0.5-0.5,0.5s-0.5-0.224-0.5-0.5V4.5C16,3.673,15.327,3,14.5,3h-12C1.673,3,1,3.673,1,4.5v14
	C1,19.327,1.673,20,2.5,20h6.93c0.276,0,0.5,0.224,0.5,0.5S9.707,21,9.43,21z" style="stroke: currentColor; stroke-width: 1px; stroke-linecap: round;"/>
<path fill="#110638" d="M3.5,5C3.224,5,3,4.776,3,4.5v-4C3,0.224,3.224,0,3.5,0S4,0.224,4,0.5v4C4,4.776,3.776,5,3.5,5z" style="stroke: currentColor; stroke-width: 1px; stroke-linecap: round;"/>
<path fill="#110638" d="M8.5,5C8.224,5,8,4.776,8,4.5v-4C8,0.224,8.224,0,8.5,0S9,0.224,9,0.5v4C9,4.776,8.776,5,8.5,5z" style="stroke: currentColor; stroke-width: 1px; stroke-linecap: round;"/>
<path fill="#110638" d="M13.5,5C13.224,5,13,4.776,13,4.5v-4C13,0.224,13.224,0,13.5,0S14,0.224,14,0.5v4C14,4.776,13.776,5,13.5,5z
	" style="stroke: currentColor; stroke-width: 1px; stroke-linecap: round;"/>
<path fill="#110638" d="M11.5,13h-8C3.224,13,3,12.776,3,12.5S3.224,12,3.5,12h8c0.276,0,0.5,0.224,0.5,0.5S11.776,13,11.5,13z" style="stroke: currentColor; stroke-width: 1px; stroke-linecap: round;"/>
<path fill="#110638" d="M8.5,9h-5C3.224,9,3,8.776,3,8.5S3.224,8,3.5,8h5C8.776,8,9,8.224,9,8.5S8.776,9,8.5,9z" style="stroke: currentColor; stroke-width: 1px; stroke-linecap: round;"/>
<path fill="#FCC34A" d="M11.403,23.402l0.707-3.535c0.02-0.098,0.067-0.187,0.137-0.256l7.778-7.778
	c0.565-0.565,1.554-0.567,2.121,0l1.414,1.414c0.585,0.585,0.585,1.536,0,2.121l-7.778,7.778c-0.07,0.07-0.159,0.117-0.255,0.137
	l-3.535,0.707C11.65,24.062,11.332,23.757,11.403,23.402z" style="stroke: currentColor; stroke-width: 1px; stroke-linecap: round;"/>
</svg>
