<?xml version="1.0" encoding="utf-8"?>
<!-- Generator: Adobe Illustrator 21.0.0, SVG Export Plug-In . SVG Version: 6.00 Build 0)  -->
<svg version="1.1" id="_x31_" xmlns="http://www.w3.org/2000/svg" xmlns:xlink="http://www.w3.org/1999/xlink" x="0px" y="0px" viewBox="0 0 24 24" enable-background="new 0 0 24 24" xml:space="preserve" width="128" height="128">
<path fill="#110638" d="M13.5,11c-0.276,0-0.5-0.224-0.5-0.5v-3C13,7.224,13.224,7,13.5,7S14,7.224,14,7.5v3
	C14,10.776,13.776,11,13.5,11z" style="stroke: currentColor; stroke-width: 1px; stroke-linecap: round;"/>
<path fill="#110638" d="M13.5,24c-0.276,0-0.5-0.224-0.5-0.5v-9c0-0.276,0.224-0.5,0.5-0.5s0.5,0.224,0.5,0.5v9
	C14,23.776,13.776,24,13.5,24z" style="stroke: currentColor; stroke-width: 1px; stroke-linecap: round;"/>
<path fill="#110638" d="M10.5,11c-0.276,0-0.5-0.224-0.5-0.5v-3C10,7.224,10.224,7,10.5,7S11,7.224,11,7.5v3
	C11,10.776,10.776,11,10.5,11z" style="stroke: currentColor; stroke-width: 1px; stroke-linecap: round;"/>
<path fill="#110638" d="M10.5,24c-0.276,0-0.5-0.224-0.5-0.5v-9c0-0.276,0.224-0.5,0.5-0.5s0.5,0.224,0.5,0.5v9
	C11,23.776,10.776,24,10.5,24z" style="stroke: currentColor; stroke-width: 1px; stroke-linecap: round;"/>
<path fill="#110638" d="M13.5,4C13.224,4,13,3.776,13,3.5v-2C13,1.225,12.775,1,12.5,1h-1C11.225,1,11,1.225,11,1.5v2
	C11,3.776,10.776,4,10.5,4S10,3.776,10,3.5v-2C10,0.673,10.673,0,11.5,0h1C13.327,0,14,0.673,14,1.5v2C14,3.776,13.776,4,13.5,4z" style="stroke: currentColor; stroke-width: 1px; stroke-linecap: round;"/>
<path fill="#110638" d="M19.5,24h-15C4.224,24,4,23.776,4,23.5S4.224,23,4.5,23h15c0.276,0,0.5,0.224,0.5,0.5S19.776,24,19.5,24z" style="stroke: currentColor; stroke-width: 1px; stroke-linecap: round;"/>
<path fill="#110638" d="M17.5,15H6c-0.113,0-0.224-0.039-0.313-0.109l-2.5-2C3.069,12.796,3,12.652,3,12.5s0.069-0.296,0.188-0.391
	l2.5-2C5.776,10.039,5.887,10,6,10h11.5c0.827,0,1.5,0.673,1.5,1.5v2C19,14.327,18.327,15,17.5,15z M6.176,14H17.5
	c0.275,0,0.5-0.225,0.5-0.5v-2c0-0.275-0.225-0.5-0.5-0.5H6.176l-1.875,1.5L6.176,14z" style="stroke: currentColor; stroke-width: 1px; stroke-linecap: round;"/>
<path fill="#FF7A55" d="M18,8H6.5C5.673,8,5,7.327,5,6.5v-2C5,3.673,5.673,3,6.5,3H18c0.113,0,0.224,0.039,0.312,0.109l2.5,2
	C20.931,5.205,21,5.348,21,5.5s-0.069,0.295-0.188,0.391l-2.5,2C18.224,7.961,18.113,8,18,8z" style="stroke: currentColor; stroke-width: 1px; stroke-linecap: round;"/>
</svg>
