<?xml version="1.0" encoding="UTF-8"?><svg version="1.1" viewBox="0 0 24 24" xmlns="http://www.w3.org/2000/svg" xmlns:xlink="http://www.w3.org/1999/xlink" width="128" height="128"><!--Generated by IJSVG (https://github.com/iconjar/IJSVG)--><g fill="#110638" fill-rule="evenodd"><path d="M4.5,11c0,-4.14214 3.35786,-7.5 7.5,-7.5c4.1421,0 7.5,3.35786 7.5,7.5v4c0,0.2761 -0.2239,0.5 -0.5,0.5c-0.2761,0 -0.5,-0.2239 -0.5,-0.5v-4c0,-3.58985 -2.9101,-6.5 -6.5,-6.5c-3.58985,0 -6.5,2.91015 -6.5,6.5v4c0,0.2761 -0.22386,0.5 -0.5,0.5c-0.27614,0 -0.5,-0.2239 -0.5,-0.5v-4Z" style="stroke: currentColor; stroke-width: 1px; stroke-linecap: round;"/><path d="M21,13.5c0.2761,0 0.5,0.2239 0.5,0.5v4c0,0.2761 -0.2239,0.5 -0.5,0.5c-0.2761,0 -0.5,-0.2239 -0.5,-0.5v-4c0,-0.2761 0.2239,-0.5 0.5,-0.5Z" style="stroke: currentColor; stroke-width: 1px; stroke-linecap: round;"/><path d="M3,13.5c0.27614,0 0.5,0.2239 0.5,0.5v4c0,0.2761 -0.22386,0.5 -0.5,0.5c-0.27614,0 -0.5,-0.2239 -0.5,-0.5v-4c0,-0.2761 0.22386,-0.5 0.5,-0.5Z" style="stroke: currentColor; stroke-width: 1px; stroke-linecap: round;"/><path fill="#EF815F" d="M19,12.5c0.2761,0 0.5,0.2239 0.5,0.5v6c0,0.2761 -0.2239,0.5 -0.5,0.5h-3c-0.2761,0 -0.5,-0.2239 -0.5,-0.5v-6c0,-0.2761 0.2239,-0.5 0.5,-0.5h3Z" style="stroke: currentColor; stroke-width: 1px; stroke-linecap: round;"/><path fill="#EF815F" d="M8,12.5c0.27614,0 0.5,0.2239 0.5,0.5v6c0,0.2761 -0.22386,0.5 -0.5,0.5h-3c-0.27614,0 -0.5,-0.2239 -0.5,-0.5v-6c0,-0.2761 0.22386,-0.5 0.5,-0.5h3Z" style="stroke: currentColor; stroke-width: 1px; stroke-linecap: round;"/></g></svg>