<?xml version="1.0" encoding="UTF-8"?><svg version="1.1" viewBox="0 0 24 24" xmlns="http://www.w3.org/2000/svg" xmlns:xlink="http://www.w3.org/1999/xlink" width="128" height="128"><!--Generated by IJSVG (https://github.com/iconjar/IJSVG)--><g fill="#110638" fill-rule="evenodd"><path d="M13.681,1.5c4.6039,0 8.319,3.65579 8.319,8.14449c0,2.09841 -0.7003,3.49191 -2.0425,4.87501c-0.295,0.304 -0.4772,0.7159 -0.4772,1.1587c0,0.1352 0.0169,0.2699 0.0503,0.4009l0.9316,3.6529c0.094,0.3684 -0.1296,0.7344 -0.4811,0.8206l-7.8709,1.9287c-0.3334,0.0817 -0.6793,-0.1143 -0.7801,-0.4601l-0.7042,-2.4161c-0.2061,-0.7071 -0.84984,-1.1987 -1.58766,-1.1987h-3.02142c-0.35559,0 -0.65487,-0.2938 -0.65487,-0.6699v-2.3506c0,-0.6858 -0.41632,-1.306 -1.05551,-1.5566l-0.88547,-0.3471c-0.42036,-0.1649 -0.56126,-0.7106 -0.2598,-1.0652l1.80191,-2.1195c0.2605,-0.30644 0.39021,-0.68661 0.40917,-1.06208c0.217,-4.29909 3.8456,-7.73542 8.30875,-7.73542Zm9.319,8.14449c0,-5.05974 -4.1817,-9.14449 -9.319,-9.14449c-4.98099,0 -9.06289,3.8392 -9.30748,8.68501c-0.0093,0.18424 -0.07178,0.34648 -0.17232,0.46474l-1.80191,2.11955c-0.74005,0.8704 -0.41138,2.2251 0.65665,2.6438l0.88547,0.3472c0.25043,0.0982 0.42054,0.345 0.42054,0.6256v2.3506c0,0.9162 0.73482,1.6699 1.65487,1.6699h3.02142c0.28588,0 0.54376,0.1911 0.62757,0.4786l0.70429,2.4161c0.2478,0.8502 1.1151,1.363 1.9781,1.1515l7.8709,-1.9288c0.902,-0.221 1.4408,-1.1425 1.2121,-2.039l-0.9316,-3.6528c-0.0128,-0.0502 -0.0193,-0.1019 -0.0193,-0.1538c0,-0.1656 0.0686,-0.3323 0.1948,-0.4622c1.495,-1.5405 2.3249,-3.1751 2.3249,-5.57151Z" style="stroke: currentColor; stroke-width: 1px; stroke-linecap: round;"/><path fill="#6569D4" d="M17.6501,4.55835c0.8285,0 1.5,0.67157 1.5,1.5c0,0.82843 -0.6715,1.5 -1.5,1.5c-0.8284,0 -1.5,-0.67157 -1.5,-1.5c0,-0.82843 0.6716,-1.5 1.5,-1.5Z" style="stroke: currentColor; stroke-width: 1px; stroke-linecap: round;"/><path fill="#6569D4" d="M13.6501,4.55835c0.8285,0 1.5,0.67157 1.5,1.5c0,0.82843 -0.6715,1.5 -1.5,1.5c-0.8284,0 -1.5,-0.67157 -1.5,-1.5c0,-0.82843 0.6716,-1.5 1.5,-1.5Z" style="stroke: currentColor; stroke-width: 1px; stroke-linecap: round;"/><path fill="#6569D4" d="M9.65015,4.55835c0.82845,0 1.49995,0.67157 1.49995,1.5c0,0.82843 -0.6715,1.5 -1.49995,1.5c-0.82843,0 -1.5,-0.67157 -1.5,-1.5c0,-0.82843 0.67157,-1.5 1.5,-1.5Z" style="stroke: currentColor; stroke-width: 1px; stroke-linecap: round;"/></g></svg>